<?xml version="1.0" standalone="no"?>
<!DOCTYPE svg PUBLIC "-//W3C//DTD SVG 20010904//EN"
 "http://www.w3.org/TR/2001/REC-SVG-20010904/DTD/svg10.dtd">
<svg version="1.0" xmlns="http://www.w3.org/2000/svg"
 width="80.000000pt" height="80.000000pt" viewBox="0 0 80.000000 80.000000"
 preserveAspectRatio="xMidYMid meet">
<metadata>
Created by potrace 1.11, written by Peter Selinger 2001-2013
</metadata>
<g transform="translate(0.000000,80.000000) scale(0.100000,-0.100000)"
fill="#000000" stroke="none">
<path d="M358 784 c-43 -23 -36 -38 35 -73 26 -13 52 -30 58 -38 6 -7 17 -13
24 -13 7 0 28 -14 45 -30 24 -22 30 -34 22 -42 -7 -7 -7 -19 -2 -34 5 -13 6
-25 2 -28 -5 -3 -7 -20 -5 -38 2 -18 4 -52 3 -75 0 -48 11 -60 34 -37 9 8 16
12 16 7 1 -4 10 3 20 16 17 20 20 39 20 143 0 88 -4 123 -14 133 -7 8 -16 11
-20 8 -3 -4 -6 -2 -6 4 0 6 -14 16 -31 23 -17 7 -36 18 -42 24 -18 17 -108 66
-121 66 -6 -1 -23 -8 -38 -16z"/>
<path d="M260 730 c0 -4 -15 -15 -32 -24 -18 -9 -64 -35 -103 -59 -69 -42 -70
-43 -73 -90 -2 -26 1 -47 7 -47 12 0 185 102 189 112 11 25 59 4 217 -92 17
-11 35 -16 40 -12 12 9 14 92 2 92 -5 0 -29 14 -54 30 -24 17 -46 30 -49 30
-2 0 -23 12 -46 26 -45 29 -98 47 -98 34z"/>
<path d="M659 627 c-1 -7 -2 -63 -3 -125 -1 -88 -4 -115 -16 -123 -8 -5 -54
-32 -103 -61 -48 -28 -89 -54 -92 -57 -6 -11 8 -27 40 -43 27 -15 31 -14 65 7
19 12 45 25 58 29 12 4 22 11 22 15 0 4 18 16 40 27 22 10 40 22 40 27 0 4 7
7 15 7 18 0 17 -5 19 145 1 107 -1 122 -18 138 -10 9 -22 17 -25 18 -3 0 -14
2 -23 4 -10 2 -19 -2 -19 -8z"/>
<path d="M205 558 c-38 -23 -72 -44 -75 -47 -3 -3 -22 -14 -43 -23 l-37 -18 0
-130 0 -130 40 -26 c22 -15 43 -25 46 -22 7 8 7 156 -1 168 -3 6 -2 10 4 10 7
0 7 8 2 23 -15 39 8 65 109 120 52 29 96 59 98 68 2 9 -11 22 -33 32 -20 9
-37 17 -38 17 -1 0 -33 -19 -72 -42z"/>
<path d="M222 435 c-56 -24 -57 -30 -57 -166 0 -128 8 -159 41 -159 8 0 14 -3
14 -7 0 -5 10 -13 23 -19 61 -30 107 -59 107 -66 0 -5 4 -7 9 -3 5 3 12 1 16
-5 10 -16 33 -12 70 13 35 24 35 34 0 53 -48 26 -70 39 -75 44 -3 3 -15 11
-27 18 -56 31 -68 38 -78 47 -12 12 -13 74 -2 93 5 6 4 12 0 12 -5 0 -8 36 -7
80 1 44 2 80 1 80 -1 -1 -17 -7 -35 -15z"/>
<path d="M700 280 c-14 -10 -28 -16 -32 -14 -4 3 -8 0 -8 -6 0 -6 -8 -14 -17
-17 -10 -4 -42 -22 -72 -40 l-55 -32 -50 27 c-28 15 -53 30 -56 33 -10 12
-101 59 -114 59 -16 0 -29 -27 -17 -34 5 -3 7 -16 6 -29 -2 -14 4 -29 14 -36
48 -33 131 -78 135 -73 3 3 6 1 6 -4 0 -5 16 -18 35 -28 39 -21 39 -21 140 37
140 80 135 75 135 122 0 50 -16 61 -50 35z"/>
</g>
</svg>
